<?xml version="1.0" standalone="no"?>
<!DOCTYPE svg PUBLIC "-//W3C//DTD SVG 20010904//EN"
 "http://www.w3.org/TR/2001/REC-SVG-20010904/DTD/svg10.dtd">
<svg version="1.0" xmlns="http://www.w3.org/2000/svg"
 viewBox="0 0 2600.000000 2600.000000"
 preserveAspectRatio="xMidYMid meet">
<metadata>
Created by potrace 1.15, written by Peter Selinger 2001-2017
</metadata>
<g transform="translate(0.000000,2600.000000) scale(0.100000,-0.100000)"
fill="#000000" stroke="none">
<path d="M13070 19549 c-839 -31 -1707 -231 -2479 -570 -174 -77 -528 -257
-686 -350 -1866 -1090 -3108 -2976 -3364 -5109 -61 -505 -63 -1072 -5 -1590
185 -1670 1005 -3237 2283 -4363 1001 -882 2238 -1454 3551 -1641 375 -54 492
-61 980 -61 492 1 642 11 1030 71 3014 466 5372 2882 5754 5898 42 330 51 481
51 876 0 379 -8 516 -46 830 -160 1330 -719 2594 -1604 3625 -147 172 -447
479 -615 630 -1102 990 -2466 1589 -3935 1730 -139 13 -633 37 -690 33 -11 -1
-112 -5 -225 -9z m743 -1425 c1007 -85 1963 -450 2783 -1061 211 -158 363
-291 585 -512 447 -447 753 -872 1032 -1431 262 -524 429 -1057 511 -1632 45
-310 51 -407 51 -783 0 -376 -6 -473 -51 -783 -128 -900 -481 -1745 -1039
-2487 -163 -217 -292 -364 -514 -585 -421 -420 -850 -730 -1381 -999 -645
-327 -1310 -513 -2039 -570 -172 -14 -637 -14 -812 -1 -1861 143 -3503 1211
-4393 2858 -339 627 -546 1312 -623 2062 -23 230 -23 780 0 1010 120 1168 552
2176 1311 3060 120 141 413 432 561 559 589 505 1296 889 2028 1101 643 187
1310 252 1990 194z"/>
<path d="M10347 15176 c-83 -24 -157 -66 -222 -128 -73 -68 -115 -129 -147
-214 l-23 -59 -3 -2038 c-3 -2230 -6 -2098 55 -2225 37 -76 159 -198 235 -235
81 -39 161 -57 251 -57 101 0 189 29 322 106 1166 671 3286 1896 3333 1926
237 153 317 437 195 696 -17 38 -52 83 -102 132 -74 73 -113 96 -1796 1067
-946 545 -1745 1001 -1775 1014 -70 28 -248 36 -323 15z"/>
<path d="M15648 15169 c-145 -16 -280 -80 -383 -184 -80 -80 -125 -151 -163
-257 l-27 -73 0 -1945 0 -1945 29 -83 c66 -195 224 -351 416 -414 90 -29 263
-36 351 -14 236 59 420 240 479 472 20 76 20 119 20 1979 0 1860 0 1903 -20
1979 -47 185 -171 337 -341 419 -123 60 -233 80 -361 66z"/>
</g>
</svg>
